<svg id="svg" version="1.1" xmlns="http://www.w3.org/2000/svg" xmlns:xlink="http://www.w3.org/1999/xlink" width="400" height="400" viewBox="0, 0, 400,400"><g id="svgg"><path id="path0" d="M260.667 57.467 C 260.520 57.613,260.400 58.143,260.400 58.643 C 260.400 59.143,260.239 59.652,260.042 59.774 C 259.845 59.896,259.556 61.437,259.400 63.198 C 259.244 64.959,258.955 66.400,258.758 66.400 C 258.561 66.400,258.400 67.300,258.400 68.400 C 258.400 69.500,258.241 70.400,258.047 70.400 C 257.853 70.400,257.567 71.929,257.412 73.799 C 257.256 75.668,256.965 77.298,256.764 77.422 C 256.564 77.546,256.400 78.447,256.400 79.424 C 256.400 80.401,256.239 81.200,256.042 81.200 C 255.845 81.200,255.556 82.640,255.400 84.400 C 255.244 86.160,254.955 87.600,254.758 87.600 C 254.561 87.600,254.400 88.399,254.400 89.376 C 254.400 90.353,254.242 91.251,254.048 91.370 C 253.854 91.490,253.568 93.121,253.412 94.994 C 253.256 96.867,252.964 98.400,252.764 98.400 C 252.564 98.400,252.400 99.109,252.400 99.976 C 252.400 100.843,252.239 101.652,252.043 101.774 C 251.846 101.895,251.557 103.616,251.400 105.597 C 251.243 107.579,250.954 109.200,250.758 109.200 C 250.561 109.200,250.400 109.920,250.400 110.800 C 250.400 111.680,250.239 112.400,250.042 112.400 C 249.846 112.400,249.557 114.020,249.400 116.000 C 249.243 117.980,248.954 119.600,248.758 119.600 C 248.561 119.600,248.400 120.410,248.400 121.400 C 248.400 122.390,248.234 123.200,248.030 123.200 C 247.827 123.200,247.533 124.820,247.378 126.800 C 247.224 128.780,246.940 130.400,246.748 130.400 C 246.557 130.400,246.400 131.390,246.400 132.600 L 246.400 134.800 300.000 134.800 L 353.600 134.800 353.600 133.769 C 353.600 132.737,352.343 131.211,350.400 129.881 C 349.207 129.066,347.034 127.229,344.504 124.900 C 343.488 123.965,342.497 123.200,342.302 123.200 C 342.106 123.200,341.352 122.570,340.626 121.800 C 339.900 121.030,339.179 120.400,339.024 120.400 C 338.869 120.400,338.498 120.175,338.198 119.900 C 337.898 119.625,337.102 118.950,336.428 118.400 C 335.754 117.850,334.279 116.545,333.150 115.500 C 332.021 114.455,330.948 113.600,330.765 113.600 C 330.582 113.600,329.698 112.880,328.800 112.000 C 327.902 111.120,326.995 110.400,326.784 110.400 C 326.573 110.400,326.400 110.232,326.400 110.027 C 326.400 109.822,326.049 109.543,325.620 109.406 C 325.192 109.270,324.730 108.808,324.594 108.380 C 324.457 107.951,324.091 107.600,323.778 107.600 C 323.466 107.600,322.306 106.700,321.200 105.600 C 320.094 104.500,319.031 103.600,318.837 103.600 C 318.643 103.600,317.907 103.060,317.200 102.400 C 316.493 101.740,315.677 101.200,315.385 101.200 C 315.093 101.200,314.740 100.840,314.600 100.400 C 314.460 99.960,314.177 99.600,313.970 99.600 C 313.764 99.600,313.203 99.150,312.725 98.600 C 312.247 98.050,311.680 97.600,311.466 97.600 C 311.252 97.600,310.391 96.880,309.554 96.000 C 308.717 95.120,307.860 94.400,307.650 94.400 C 307.439 94.400,306.495 93.680,305.551 92.800 C 304.608 91.920,303.701 91.200,303.536 91.200 C 303.372 91.200,302.439 90.390,301.463 89.400 C 300.487 88.410,299.533 87.600,299.344 87.599 C 299.155 87.599,298.323 86.879,297.495 85.999 C 296.667 85.120,295.825 84.400,295.624 84.400 C 295.422 84.400,294.596 83.776,293.787 83.014 C 292.979 82.251,291.985 81.522,291.579 81.393 C 291.173 81.265,290.733 80.817,290.600 80.400 C 290.467 79.983,290.035 79.538,289.638 79.412 C 289.242 79.286,287.946 78.288,286.759 77.194 C 285.571 76.100,284.453 75.204,284.273 75.202 C 284.093 75.201,283.373 74.604,282.673 73.875 C 281.973 73.146,280.950 72.246,280.400 71.873 C 279.072 70.974,276.651 68.949,274.692 67.100 C 273.818 66.275,272.952 65.600,272.767 65.600 C 272.582 65.600,271.718 64.880,270.847 64.000 C 269.976 63.120,269.146 62.400,269.003 62.400 C 268.860 62.400,268.498 62.175,268.198 61.900 C 267.898 61.625,267.108 60.950,266.443 60.400 C 265.777 59.850,264.666 58.905,263.974 58.300 C 262.785 57.261,261.257 56.876,260.667 57.467 M246.098 141.700 C 245.877 141.975,245.571 143.415,245.417 144.900 C 245.263 146.385,244.971 147.600,244.768 147.600 C 244.566 147.600,244.400 148.230,244.400 149.000 C 244.400 149.770,244.220 150.400,244.000 150.400 C 243.780 150.400,243.600 151.030,243.600 151.800 L 243.600 153.200 240.224 153.200 C 238.367 153.200,236.736 153.020,236.600 152.800 C 236.460 152.573,234.463 152.400,231.976 152.400 C 229.325 152.400,227.600 152.242,227.600 152.000 C 227.600 151.759,225.933 151.600,223.400 151.600 L 219.200 151.600 219.200 179.600 L 219.200 207.600 220.400 207.600 C 221.060 207.600,221.600 207.428,221.600 207.218 C 221.600 207.008,222.230 206.718,223.000 206.574 C 223.770 206.429,224.400 206.151,224.400 205.955 C 224.400 205.760,224.670 205.600,225.000 205.600 C 225.330 205.600,225.600 205.420,225.600 205.200 C 225.600 204.980,225.779 204.800,225.997 204.800 C 226.643 204.800,229.600 203.435,229.600 203.137 C 229.600 202.987,230.140 202.745,230.800 202.600 C 231.459 202.455,232.224 202.015,232.500 201.622 C 232.775 201.229,233.585 200.779,234.300 200.622 C 235.015 200.465,235.600 200.171,235.600 199.968 C 235.600 199.766,235.870 199.600,236.200 199.600 C 236.530 199.600,236.800 199.440,236.800 199.245 C 236.800 199.049,237.430 198.771,238.200 198.626 C 238.970 198.482,239.600 198.192,239.600 197.982 C 239.600 197.772,239.870 197.600,240.200 197.600 C 240.530 197.600,240.800 197.440,240.800 197.245 C 240.800 197.049,241.430 196.771,242.200 196.626 C 242.970 196.482,243.600 196.192,243.600 195.982 C 243.600 195.772,243.870 195.600,244.200 195.600 C 244.530 195.600,244.800 195.434,244.800 195.232 C 244.800 195.029,245.370 194.738,246.067 194.585 C 246.763 194.432,247.687 193.977,248.121 193.574 C 248.554 193.170,249.469 192.717,250.154 192.566 C 250.839 192.416,251.680 191.969,252.023 191.573 C 252.367 191.177,253.132 190.732,253.724 190.583 C 254.316 190.435,254.800 190.153,254.800 189.957 C 254.800 189.760,255.160 189.600,255.600 189.600 C 256.040 189.600,256.400 189.434,256.400 189.232 C 256.400 189.029,256.940 188.745,257.600 188.600 C 258.260 188.455,258.800 188.171,258.800 187.968 C 258.800 187.766,259.145 187.600,259.567 187.600 C 259.988 187.600,260.393 187.465,260.467 187.300 C 260.655 186.877,263.157 185.600,263.799 185.600 C 264.093 185.600,264.393 185.465,264.467 185.300 C 264.660 184.865,267.165 183.600,267.832 183.600 C 268.145 183.600,268.400 183.423,268.400 183.208 C 268.400 182.992,268.850 182.702,269.400 182.564 C 269.950 182.426,270.400 182.153,270.400 181.957 C 270.400 181.760,270.670 181.600,271.000 181.600 C 271.330 181.600,271.600 181.420,271.600 181.200 C 271.600 180.980,271.779 180.800,271.997 180.800 C 272.659 180.800,275.600 179.432,275.600 179.124 C 275.600 178.966,276.230 178.718,277.000 178.574 C 277.770 178.429,278.400 178.151,278.400 177.955 C 278.400 177.760,278.670 177.600,279.000 177.600 C 279.330 177.600,279.600 177.428,279.600 177.218 C 279.600 177.008,280.230 176.718,281.000 176.574 C 281.770 176.429,282.400 176.151,282.400 175.955 C 282.400 175.760,282.670 175.600,283.000 175.600 C 283.330 175.600,283.600 175.420,283.600 175.200 C 283.600 174.980,283.798 174.800,284.040 174.800 C 284.575 174.800,287.322 173.546,287.600 173.175 C 287.710 173.028,288.205 172.781,288.700 172.627 C 289.195 172.472,289.600 172.178,289.600 171.973 C 289.600 171.768,289.870 171.600,290.200 171.600 C 290.530 171.600,290.800 171.440,290.800 171.245 C 290.800 171.049,291.430 170.771,292.200 170.626 C 292.970 170.482,293.600 170.192,293.600 169.982 C 293.600 169.772,293.870 169.600,294.200 169.600 C 294.530 169.600,294.800 169.440,294.800 169.245 C 294.800 169.049,295.430 168.771,296.200 168.626 C 296.970 168.482,297.600 168.192,297.600 167.982 C 297.600 167.772,297.870 167.600,298.200 167.600 C 298.530 167.600,298.800 167.428,298.800 167.218 C 298.800 167.008,299.430 166.718,300.200 166.574 C 300.970 166.429,301.600 166.151,301.600 165.955 C 301.600 165.760,301.870 165.600,302.200 165.600 C 302.530 165.600,302.800 165.434,302.800 165.232 C 302.800 165.029,303.370 164.738,304.067 164.585 C 304.763 164.432,305.705 163.961,306.159 163.538 C 306.613 163.115,307.393 162.666,307.892 162.541 C 308.391 162.416,308.800 162.153,308.800 161.957 C 308.800 161.760,309.160 161.600,309.600 161.600 C 310.040 161.600,310.400 161.434,310.400 161.232 C 310.400 161.029,310.940 160.745,311.600 160.600 C 312.260 160.455,312.800 160.171,312.800 159.968 C 312.800 159.766,313.160 159.600,313.600 159.600 C 314.040 159.600,314.400 159.434,314.400 159.232 C 314.400 159.029,314.940 158.745,315.600 158.600 C 316.260 158.455,316.800 158.171,316.800 157.968 C 316.800 157.766,317.145 157.600,317.567 157.600 C 317.988 157.600,318.393 157.465,318.467 157.300 C 318.660 156.865,321.165 155.600,321.832 155.600 C 322.145 155.600,322.400 155.455,322.400 155.277 C 322.400 154.923,325.188 153.600,325.934 153.600 C 326.190 153.600,326.400 153.419,326.400 153.199 C 326.400 152.978,327.120 152.486,328.000 152.104 C 328.880 151.723,329.600 151.282,329.600 151.124 C 329.600 150.966,330.230 150.718,331.000 150.574 C 331.770 150.429,332.400 150.151,332.400 149.955 C 332.400 149.760,332.670 149.600,333.000 149.600 C 333.330 149.600,333.600 149.420,333.600 149.200 C 333.600 148.980,333.779 148.800,333.997 148.800 C 334.659 148.800,337.600 147.432,337.600 147.124 C 337.600 146.966,338.230 146.718,339.000 146.574 C 339.770 146.429,340.400 146.151,340.400 145.955 C 340.400 145.760,340.670 145.600,341.000 145.600 C 341.330 145.600,341.600 145.440,341.600 145.243 C 341.600 145.047,342.094 144.763,342.698 144.611 C 344.281 144.214,344.800 143.656,344.800 142.351 L 344.800 141.200 295.649 141.200 C 256.808 141.200,246.414 141.305,246.098 141.700 M151.843 149.814 C 151.521 150.136,151.130 150.400,150.974 150.400 C 150.819 150.400,150.275 150.850,149.765 151.400 C 149.255 151.950,148.579 152.400,148.262 152.400 C 147.945 152.400,147.582 152.670,147.455 153.000 C 147.329 153.330,146.960 153.600,146.635 153.600 C 146.311 153.600,145.810 153.927,145.523 154.327 C 145.235 154.727,144.415 155.396,143.700 155.813 C 142.985 156.231,142.400 156.714,142.400 156.886 C 142.400 157.059,142.175 157.203,141.900 157.206 C 141.625 157.210,140.791 157.750,140.046 158.406 C 139.301 159.063,138.458 159.600,138.173 159.600 C 137.887 159.600,137.540 159.960,137.400 160.400 C 137.260 160.842,136.795 161.200,136.360 161.200 C 135.928 161.200,135.471 161.470,135.345 161.800 C 135.218 162.130,134.855 162.400,134.538 162.400 C 134.221 162.400,133.545 162.850,133.035 163.400 C 132.525 163.950,131.904 164.400,131.654 164.400 C 131.404 164.400,131.200 164.539,131.200 164.709 C 131.200 164.879,130.570 165.357,129.800 165.772 C 129.030 166.187,128.400 166.666,128.400 166.836 C 128.400 167.007,128.085 167.247,127.700 167.371 C 127.315 167.494,126.477 168.046,125.838 168.598 C 125.199 169.149,124.446 169.600,124.165 169.600 C 123.884 169.600,123.545 169.942,123.413 170.360 C 123.280 170.778,122.728 171.232,122.186 171.368 C 121.644 171.504,121.200 171.792,121.200 172.008 C 121.200 172.223,120.921 172.400,120.581 172.400 C 120.240 172.400,119.545 172.850,119.035 173.400 C 118.525 173.950,117.904 174.400,117.654 174.400 C 117.404 174.400,117.200 174.568,117.200 174.773 C 117.200 174.978,116.885 175.247,116.500 175.371 C 116.115 175.494,115.277 176.046,114.638 176.598 C 113.999 177.149,113.317 177.600,113.123 177.600 C 112.797 177.600,112.398 177.919,109.790 180.269 C 109.260 180.747,108.460 181.254,108.013 181.396 C 107.566 181.538,107.200 181.822,107.200 182.027 C 107.200 182.232,106.921 182.400,106.581 182.400 C 106.240 182.400,105.545 182.850,105.035 183.400 C 104.525 183.950,103.904 184.400,103.654 184.400 C 103.404 184.400,103.200 184.568,103.200 184.773 C 103.200 184.978,102.885 185.247,102.500 185.371 C 102.115 185.494,101.277 186.046,100.638 186.598 C 99.999 187.149,99.317 187.600,99.123 187.600 C 98.797 187.600,98.398 187.919,95.790 190.269 C 95.260 190.747,94.460 191.254,94.013 191.396 C 93.566 191.538,93.200 191.822,93.200 192.027 C 93.200 192.232,92.921 192.400,92.581 192.400 C 92.240 192.400,91.565 192.823,91.081 193.339 C 90.596 193.856,89.394 194.784,88.409 195.402 C 87.424 196.020,86.376 196.767,86.080 197.063 C 85.785 197.358,85.369 197.600,85.157 197.600 C 84.798 197.600,84.367 197.942,81.759 200.300 C 81.212 200.795,80.600 201.200,80.400 201.200 C 80.200 201.200,79.586 201.650,79.036 202.200 C 78.486 202.750,77.876 203.200,77.680 203.200 C 77.485 203.200,76.801 203.651,76.162 204.202 C 75.523 204.754,74.685 205.306,74.300 205.429 C 73.915 205.553,73.600 205.822,73.600 206.027 C 73.600 206.232,73.330 206.400,73.000 206.400 C 72.670 206.400,72.400 206.577,72.400 206.792 C 72.400 207.008,71.985 207.289,71.477 207.416 C 70.969 207.544,70.224 208.087,69.821 208.624 C 69.418 209.161,68.765 209.600,68.371 209.600 C 67.977 209.600,67.540 209.960,67.400 210.400 C 67.260 210.840,66.896 211.200,66.591 211.200 C 66.286 211.200,65.608 211.628,65.084 212.152 C 64.561 212.676,63.742 213.228,63.266 213.379 C 62.790 213.530,62.400 213.793,62.400 213.964 C 62.400 214.134,61.770 214.613,61.000 215.028 C 60.230 215.443,59.600 215.921,59.600 216.091 C 59.600 216.261,59.330 216.400,59.000 216.400 C 58.670 216.400,58.400 216.577,58.400 216.792 C 58.400 217.008,57.985 217.289,57.477 217.416 C 56.969 217.544,56.224 218.087,55.821 218.624 C 55.418 219.161,54.765 219.600,54.371 219.600 C 53.977 219.600,53.540 219.960,53.400 220.400 C 53.260 220.840,52.907 221.200,52.615 221.200 C 51.272 221.200,49.455 223.581,50.008 224.616 C 50.298 225.157,50.758 225.600,51.031 225.600 C 51.735 225.600,55.600 223.549,55.600 223.175 C 55.600 223.004,56.140 222.745,56.800 222.600 C 57.459 222.455,58.224 222.020,58.500 221.633 C 58.775 221.246,59.510 220.803,60.134 220.648 C 60.758 220.494,61.654 220.008,62.126 219.568 C 62.598 219.129,63.393 218.666,63.892 218.541 C 64.391 218.416,64.800 218.153,64.800 217.957 C 64.800 217.760,65.141 217.600,65.557 217.600 C 65.974 217.600,66.418 217.330,66.545 217.000 C 66.671 216.670,67.141 216.400,67.587 216.400 C 68.034 216.400,68.400 216.220,68.400 216.000 C 68.400 215.780,68.670 215.600,69.000 215.600 C 69.330 215.600,69.600 215.440,69.600 215.243 C 69.600 215.047,70.050 214.774,70.600 214.636 C 71.150 214.498,71.600 214.208,71.600 213.992 C 71.600 213.777,71.870 213.600,72.200 213.600 C 72.530 213.600,72.800 213.440,72.800 213.243 C 72.800 213.047,73.250 212.774,73.800 212.636 C 74.350 212.498,74.800 212.208,74.800 211.992 C 74.800 211.777,75.160 211.600,75.600 211.600 C 76.040 211.600,76.400 211.440,76.400 211.243 C 76.400 211.047,76.809 210.784,77.308 210.659 C 77.807 210.534,78.602 210.071,79.074 209.632 C 79.546 209.192,80.401 208.715,80.975 208.570 C 81.549 208.426,82.239 207.998,82.509 207.619 C 82.779 207.240,83.510 206.803,84.134 206.648 C 84.758 206.494,85.654 206.008,86.126 205.568 C 86.598 205.129,87.393 204.666,87.892 204.541 C 88.391 204.416,88.800 204.153,88.800 203.957 C 88.800 203.760,89.141 203.600,89.557 203.600 C 89.974 203.600,90.418 203.330,90.545 203.000 C 90.671 202.670,91.141 202.400,91.587 202.400 C 92.034 202.400,92.400 202.220,92.400 202.000 C 92.400 201.780,92.670 201.600,93.000 201.600 C 93.330 201.600,93.600 201.440,93.600 201.243 C 93.600 201.047,94.050 200.774,94.600 200.636 C 95.150 200.498,95.600 200.208,95.600 199.992 C 95.600 199.777,95.870 199.600,96.200 199.600 C 96.530 199.600,96.800 199.440,96.800 199.243 C 96.800 199.047,97.250 198.774,97.800 198.636 C 98.350 198.498,98.800 198.208,98.800 197.992 C 98.800 197.777,99.160 197.600,99.600 197.600 C 100.040 197.600,100.400 197.440,100.400 197.243 C 100.400 197.047,100.809 196.784,101.308 196.659 C 101.807 196.534,102.602 196.071,103.074 195.632 C 103.546 195.192,104.401 194.715,104.975 194.570 C 105.549 194.426,106.239 193.998,106.509 193.619 C 106.779 193.240,107.510 192.803,108.134 192.648 C 108.758 192.494,109.654 192.008,110.126 191.568 C 110.598 191.129,111.393 190.666,111.892 190.541 C 112.391 190.416,112.800 190.153,112.800 189.957 C 112.800 189.760,113.141 189.600,113.557 189.600 C 113.974 189.600,114.418 189.330,114.545 189.000 C 114.671 188.670,115.141 188.400,115.587 188.400 C 116.034 188.400,116.400 188.220,116.400 188.000 C 116.400 187.780,116.670 187.600,117.000 187.600 C 117.330 187.600,117.600 187.440,117.600 187.243 C 117.600 187.047,118.050 186.774,118.600 186.636 C 119.150 186.498,119.600 186.208,119.600 185.992 C 119.600 185.777,119.870 185.600,120.200 185.600 C 120.530 185.600,120.800 185.440,120.800 185.243 C 120.800 185.047,121.250 184.774,121.800 184.636 C 122.350 184.498,122.800 184.208,122.800 183.992 C 122.800 183.777,123.160 183.600,123.600 183.600 C 124.040 183.600,124.400 183.440,124.400 183.243 C 124.400 183.047,124.809 182.784,125.308 182.659 C 125.807 182.534,126.602 182.071,127.074 181.632 C 127.546 181.192,128.401 180.715,128.975 180.570 C 129.549 180.426,130.239 179.998,130.509 179.619 C 130.779 179.240,131.510 178.803,132.134 178.648 C 132.758 178.494,133.654 178.008,134.126 177.568 C 134.598 177.129,135.393 176.666,135.892 176.541 C 136.391 176.416,136.800 176.153,136.800 175.957 C 136.800 175.760,137.141 175.600,137.557 175.600 C 137.974 175.600,138.418 175.330,138.545 175.000 C 138.671 174.670,139.141 174.400,139.587 174.400 C 140.034 174.400,140.400 174.220,140.400 174.000 C 140.400 173.780,140.670 173.600,141.000 173.600 C 141.330 173.600,141.600 173.440,141.600 173.243 C 141.600 173.047,142.050 172.774,142.600 172.636 C 143.150 172.498,143.600 172.208,143.600 171.992 C 143.600 171.777,143.870 171.600,144.200 171.600 C 144.530 171.600,144.800 171.440,144.800 171.243 C 144.800 171.047,145.250 170.774,145.800 170.636 C 146.350 170.498,146.800 170.208,146.800 169.992 C 146.800 169.777,147.160 169.600,147.600 169.600 C 148.040 169.600,148.400 169.440,148.400 169.243 C 148.400 169.047,148.809 168.784,149.308 168.659 C 149.807 168.534,150.602 168.071,151.074 167.632 C 151.546 167.192,152.401 166.715,152.975 166.570 C 153.549 166.426,154.239 165.998,154.509 165.619 C 154.779 165.240,155.510 164.803,156.134 164.648 C 156.758 164.494,157.654 164.008,158.126 163.568 C 158.598 163.129,159.393 162.666,159.892 162.541 C 160.391 162.416,160.800 162.153,160.800 161.957 C 160.800 161.760,161.145 161.600,161.567 161.600 C 161.988 161.600,162.431 161.375,162.551 161.100 C 162.701 160.757,162.978 160.882,163.433 161.500 C 163.799 161.995,164.268 162.400,164.476 162.400 C 164.684 162.400,165.931 163.443,167.246 164.719 C 169.667 167.066,169.971 168.019,168.472 168.567 C 167.338 168.982,165.835 169.938,165.407 170.517 C 165.183 170.820,164.489 171.195,163.866 171.350 C 163.242 171.505,162.288 172.075,161.747 172.616 C 161.206 173.157,160.502 173.600,160.182 173.600 C 159.862 173.600,159.600 173.780,159.600 174.000 C 159.600 174.220,159.330 174.400,159.000 174.400 C 158.670 174.400,158.400 174.568,158.400 174.773 C 158.400 174.978,157.995 175.274,157.500 175.430 C 157.005 175.587,156.330 176.016,156.000 176.386 C 155.670 176.755,154.773 177.404,154.007 177.828 C 153.241 178.253,152.373 178.825,152.079 179.100 C 151.784 179.375,151.352 179.600,151.118 179.600 C 150.885 179.600,150.403 179.934,150.047 180.343 C 149.691 180.751,148.995 181.213,148.500 181.370 C 148.005 181.526,147.600 181.822,147.600 182.027 C 147.600 182.232,147.330 182.400,147.000 182.400 C 146.670 182.400,146.400 182.568,146.400 182.773 C 146.400 182.978,146.072 183.250,145.671 183.378 C 145.269 183.505,144.589 183.922,144.160 184.305 C 143.730 184.687,142.708 185.343,141.889 185.763 C 141.070 186.183,140.400 186.678,140.400 186.863 C 140.400 187.048,140.158 187.200,139.861 187.200 C 139.565 187.200,138.894 187.571,138.371 188.025 C 137.848 188.479,136.740 189.232,135.910 189.699 C 135.079 190.165,134.400 190.675,134.400 190.830 C 134.400 190.986,133.950 191.226,133.400 191.364 C 132.850 191.502,132.400 191.792,132.400 192.008 C 132.400 192.223,132.130 192.400,131.800 192.400 C 131.470 192.400,131.200 192.539,131.200 192.709 C 131.200 192.879,130.570 193.357,129.800 193.772 C 129.030 194.187,128.400 194.658,128.400 194.820 C 128.400 194.981,127.950 195.226,127.400 195.364 C 126.850 195.502,126.400 195.792,126.400 196.008 C 126.400 196.223,126.130 196.400,125.800 196.400 C 125.470 196.400,125.200 196.568,125.200 196.773 C 125.200 196.978,124.795 197.274,124.300 197.430 C 123.805 197.587,123.119 198.037,122.776 198.430 C 122.433 198.824,121.664 199.269,121.067 199.419 C 120.470 199.569,119.761 200.005,119.491 200.388 C 119.221 200.772,118.595 201.213,118.100 201.370 C 117.605 201.526,117.200 201.822,117.200 202.027 C 117.200 202.232,116.859 202.400,116.443 202.400 C 116.026 202.400,115.582 202.670,115.455 203.000 C 115.329 203.330,114.960 203.600,114.635 203.600 C 114.311 203.600,113.810 203.934,113.523 204.343 C 113.235 204.751,112.595 205.213,112.100 205.370 C 111.605 205.526,111.200 205.822,111.200 206.027 C 111.200 206.232,110.859 206.400,110.443 206.400 C 110.026 206.400,109.582 206.670,109.455 207.000 C 109.329 207.330,108.872 207.600,108.440 207.600 C 108.005 207.600,107.540 207.958,107.400 208.400 C 107.260 208.840,106.901 209.200,106.602 209.200 C 106.302 209.200,105.812 209.425,105.512 209.700 C 104.772 210.378,103.587 211.121,102.490 211.595 C 101.989 211.811,101.483 212.240,101.364 212.549 C 101.246 212.858,100.616 213.217,99.964 213.347 C 99.313 213.477,98.326 214.038,97.772 214.592 C 97.217 215.146,96.502 215.600,96.182 215.600 C 95.862 215.600,95.600 215.780,95.600 216.000 C 95.600 216.220,95.407 216.400,95.171 216.400 C 94.408 216.400,93.600 217.517,93.600 218.571 C 93.600 219.505,93.748 219.600,95.200 219.600 C 96.080 219.600,96.800 219.440,96.800 219.245 C 96.800 219.049,97.430 218.771,98.200 218.626 C 98.970 218.482,99.600 218.192,99.600 217.982 C 99.600 217.772,99.870 217.600,100.200 217.600 C 100.530 217.600,100.800 217.440,100.800 217.245 C 100.800 217.049,101.430 216.771,102.200 216.626 C 102.970 216.482,103.600 216.192,103.600 215.982 C 103.600 215.772,103.870 215.600,104.200 215.600 C 104.530 215.600,104.800 215.440,104.800 215.245 C 104.800 215.049,105.430 214.771,106.200 214.626 C 106.970 214.482,107.600 214.192,107.600 213.982 C 107.600 213.772,107.870 213.600,108.200 213.600 C 108.530 213.600,108.800 213.440,108.800 213.245 C 108.800 213.049,109.430 212.771,110.200 212.626 C 110.970 212.482,111.600 212.192,111.600 211.982 C 111.600 211.772,111.870 211.600,112.200 211.600 C 112.530 211.600,112.800 211.440,112.800 211.245 C 112.800 211.049,113.430 210.771,114.200 210.626 C 114.970 210.482,115.600 210.192,115.600 209.982 C 115.600 209.772,115.870 209.600,116.200 209.600 C 116.530 209.600,116.800 209.440,116.800 209.245 C 116.800 209.049,117.430 208.771,118.200 208.626 C 118.970 208.482,119.600 208.192,119.600 207.982 C 119.600 207.772,119.870 207.600,120.200 207.600 C 120.530 207.600,120.800 207.428,120.800 207.218 C 120.800 207.008,121.430 206.718,122.200 206.574 C 122.970 206.429,123.600 206.151,123.600 205.955 C 123.600 205.760,123.870 205.600,124.200 205.600 C 124.530 205.600,124.800 205.428,124.800 205.218 C 124.800 205.008,125.430 204.718,126.200 204.574 C 126.970 204.429,127.600 204.151,127.600 203.955 C 127.600 203.760,127.870 203.600,128.200 203.600 C 128.530 203.600,128.800 203.428,128.800 203.218 C 128.800 203.008,129.430 202.718,130.200 202.574 C 130.970 202.429,131.600 202.151,131.600 201.955 C 131.600 201.760,131.870 201.600,132.200 201.600 C 132.530 201.600,132.800 201.428,132.800 201.218 C 132.800 201.008,133.430 200.718,134.200 200.574 C 134.970 200.429,135.600 200.151,135.600 199.955 C 135.600 199.760,135.870 199.600,136.200 199.600 C 136.530 199.600,136.800 199.428,136.800 199.218 C 136.800 199.008,137.430 198.718,138.200 198.574 C 138.970 198.429,139.600 198.151,139.600 197.955 C 139.600 197.760,139.870 197.600,140.200 197.600 C 140.530 197.600,140.800 197.428,140.800 197.218 C 140.800 197.008,141.430 196.718,142.200 196.574 C 142.970 196.429,143.600 196.151,143.600 195.955 C 143.600 195.760,143.870 195.600,144.200 195.600 C 144.530 195.600,144.800 195.434,144.800 195.232 C 144.800 195.029,145.370 194.738,146.067 194.585 C 146.763 194.432,147.687 193.977,148.121 193.574 C 148.554 193.170,149.454 192.720,150.121 192.574 C 150.787 192.427,151.687 191.977,152.121 191.574 C 152.554 191.170,153.454 190.720,154.121 190.574 C 154.787 190.427,155.687 189.977,156.121 189.574 C 156.554 189.170,157.454 188.720,158.121 188.574 C 158.787 188.427,159.687 187.977,160.121 187.574 C 160.554 187.170,161.454 186.720,162.121 186.574 C 162.787 186.427,163.687 185.977,164.121 185.574 C 164.554 185.170,165.454 184.720,166.121 184.574 C 166.787 184.427,167.687 183.977,168.121 183.574 C 168.554 183.170,169.469 182.717,170.154 182.566 C 170.839 182.416,171.680 181.969,172.023 181.573 C 172.367 181.177,173.132 180.732,173.724 180.583 C 174.316 180.435,174.800 180.153,174.800 179.957 C 174.800 179.760,175.160 179.600,175.600 179.600 C 176.040 179.600,176.400 179.434,176.400 179.232 C 176.400 179.029,176.940 178.745,177.600 178.600 C 178.260 178.455,178.800 178.171,178.800 177.968 C 178.800 177.766,179.145 177.600,179.567 177.600 C 179.988 177.600,180.400 177.401,180.481 177.158 C 180.562 176.914,181.633 177.720,182.861 178.948 C 184.765 180.852,184.983 181.215,184.347 181.417 C 183.936 181.547,183.600 181.822,183.600 182.027 C 183.600 182.232,183.396 182.400,183.146 182.400 C 182.896 182.400,182.307 182.815,181.837 183.322 C 181.367 183.829,180.716 184.376,180.391 184.538 C 178.880 185.288,177.894 185.963,177.163 186.748 C 176.726 187.216,176.146 187.600,175.873 187.600 C 175.600 187.600,175.117 187.960,174.800 188.400 C 174.483 188.840,174.001 189.200,173.730 189.200 C 173.458 189.200,172.808 189.628,172.284 190.152 C 171.761 190.676,170.942 191.228,170.466 191.379 C 169.990 191.530,169.600 191.822,169.600 192.027 C 169.600 192.232,169.396 192.400,169.146 192.400 C 168.896 192.400,168.307 192.815,167.837 193.322 C 167.367 193.829,166.716 194.376,166.391 194.538 C 164.880 195.288,163.894 195.963,163.163 196.748 C 162.726 197.216,162.146 197.600,161.873 197.600 C 161.600 197.600,161.117 197.960,160.800 198.400 C 160.483 198.840,160.001 199.200,159.730 199.200 C 159.458 199.200,158.813 199.605,158.295 200.100 C 157.297 201.054,156.189 201.832,155.200 202.273 C 154.870 202.420,154.204 202.959,153.719 203.470 C 153.235 203.982,152.579 204.400,152.262 204.400 C 151.945 204.400,151.582 204.670,151.455 205.000 C 151.329 205.330,150.960 205.600,150.635 205.600 C 150.311 205.600,149.810 205.927,149.523 206.327 C 149.235 206.727,148.415 207.396,147.700 207.813 C 146.985 208.231,146.400 208.714,146.400 208.886 C 146.400 209.059,146.138 209.200,145.818 209.200 C 145.498 209.200,144.813 209.605,144.295 210.100 C 143.297 211.054,142.189 211.832,141.200 212.273 C 140.870 212.420,140.204 212.959,139.719 213.470 C 139.235 213.982,138.650 214.400,138.419 214.400 C 137.575 214.400,136.400 216.029,136.400 217.200 C 136.400 218.693,138.644 218.949,140.071 217.620 C 140.531 217.191,141.454 216.720,142.121 216.574 C 142.787 216.427,143.695 215.970,144.137 215.559 C 144.579 215.147,145.539 214.698,146.270 214.560 C 147.002 214.423,147.600 214.151,147.600 213.955 C 147.600 213.760,147.870 213.600,148.200 213.600 C 148.530 213.600,148.800 213.428,148.800 213.218 C 148.800 213.008,149.430 212.718,150.200 212.574 C 150.970 212.429,151.600 212.151,151.600 211.955 C 151.600 211.760,151.870 211.600,152.200 211.600 C 152.530 211.600,152.800 211.428,152.800 211.218 C 152.800 211.008,153.430 210.718,154.200 210.574 C 154.970 210.429,155.600 210.151,155.600 209.955 C 155.600 209.760,155.870 209.600,156.200 209.600 C 156.530 209.600,156.800 209.428,156.800 209.218 C 156.800 209.008,157.430 208.718,158.200 208.574 C 158.970 208.429,159.600 208.151,159.600 207.955 C 159.600 207.760,159.870 207.600,160.200 207.600 C 160.530 207.600,160.800 207.440,160.800 207.245 C 160.800 207.049,161.430 206.771,162.200 206.626 C 162.970 206.482,163.600 206.192,163.600 205.982 C 163.600 205.772,163.870 205.600,164.200 205.600 C 164.530 205.600,164.800 205.440,164.800 205.245 C 164.800 205.049,165.430 204.771,166.200 204.626 C 166.970 204.482,167.600 204.192,167.600 203.982 C 167.600 203.772,167.870 203.600,168.200 203.600 C 168.530 203.600,168.800 203.440,168.800 203.245 C 168.800 203.049,169.430 202.771,170.200 202.626 C 170.970 202.482,171.600 202.192,171.600 201.982 C 171.600 201.772,171.870 201.600,172.200 201.600 C 172.530 201.600,172.800 201.440,172.800 201.245 C 172.800 201.049,173.430 200.771,174.200 200.626 C 174.970 200.482,175.600 200.192,175.600 199.982 C 175.600 199.772,175.870 199.600,176.200 199.600 C 176.530 199.600,176.800 199.440,176.800 199.245 C 176.800 199.049,177.430 198.771,178.200 198.626 C 178.970 198.482,179.600 198.192,179.600 197.982 C 179.600 197.772,179.870 197.600,180.200 197.600 C 180.530 197.600,180.800 197.440,180.800 197.245 C 180.800 197.049,181.430 196.771,182.200 196.626 C 182.970 196.482,183.600 196.192,183.600 195.982 C 183.600 195.772,183.870 195.600,184.200 195.600 C 184.530 195.600,184.800 195.420,184.800 195.200 C 184.800 194.980,185.159 194.800,185.597 194.800 C 186.583 194.800,189.600 193.523,189.600 193.106 C 189.600 192.938,189.798 192.800,190.040 192.800 C 190.661 192.800,193.349 191.515,193.653 191.074 C 193.971 190.611,197.029 193.630,197.387 194.761 C 197.787 196.018,197.292 197.090,196.186 197.368 C 195.644 197.504,195.200 197.792,195.200 198.008 C 195.200 198.223,194.943 198.400,194.628 198.400 C 194.314 198.400,193.396 199.024,192.587 199.786 C 191.779 200.549,190.776 201.281,190.359 201.413 C 189.941 201.546,189.600 201.822,189.600 202.027 C 189.600 202.232,189.330 202.400,189.000 202.400 C 188.670 202.400,188.400 202.577,188.400 202.792 C 188.400 203.008,187.985 203.289,187.477 203.416 C 186.969 203.544,186.224 204.087,185.821 204.624 C 185.418 205.161,184.765 205.600,184.371 205.600 C 183.977 205.600,183.540 205.960,183.400 206.400 C 183.260 206.840,182.896 207.200,182.591 207.200 C 182.286 207.200,181.586 207.650,181.036 208.200 C 180.486 208.750,179.856 209.200,179.636 209.200 C 179.416 209.200,178.813 209.605,178.295 210.100 C 177.306 211.045,176.206 211.819,175.200 212.279 C 173.894 212.876,172.400 214.769,172.400 215.826 L 172.400 216.914 174.900 216.653 C 176.275 216.510,177.460 216.214,177.533 215.996 C 177.607 215.778,178.102 215.600,178.633 215.600 C 179.165 215.600,179.600 215.436,179.600 215.235 C 179.600 215.034,180.320 214.749,181.200 214.600 C 182.080 214.451,182.800 214.166,182.800 213.965 C 182.800 213.764,183.250 213.600,183.800 213.600 C 184.350 213.600,184.800 213.437,184.800 213.238 C 184.800 213.038,185.700 212.751,186.800 212.600 C 187.900 212.449,188.800 212.162,188.800 211.962 C 188.800 211.763,189.250 211.600,189.800 211.600 C 190.350 211.600,190.800 211.443,190.800 211.251 C 190.800 211.059,191.528 210.786,192.417 210.644 C 193.979 210.394,194.375 210.253,196.283 209.270 C 196.768 209.020,197.893 208.699,198.783 208.556 C 199.672 208.414,200.400 208.141,200.400 207.949 C 200.400 207.757,200.749 207.600,201.176 207.600 C 201.603 207.600,202.054 207.437,202.177 207.237 C 202.300 207.038,203.301 206.751,204.400 206.600 C 205.500 206.449,206.400 206.162,206.400 205.962 C 206.400 205.763,206.850 205.600,207.400 205.600 C 207.950 205.600,208.400 205.443,208.400 205.250 C 208.400 205.058,208.940 204.792,209.600 204.660 L 210.800 204.420 210.800 177.810 L 210.800 151.200 204.800 151.200 C 201.067 151.200,198.800 151.049,198.800 150.800 C 198.800 150.545,195.360 150.400,189.280 150.400 C 184.044 150.400,179.589 150.243,179.380 150.051 C 178.643 149.374,152.508 149.149,151.843 149.814 M257.400 280.000 C 257.264 280.220,256.353 280.400,255.376 280.400 C 254.399 280.400,253.600 280.560,253.600 280.757 C 253.600 280.953,253.157 281.224,252.615 281.360 C 252.074 281.496,250.725 282.513,249.619 283.619 C 248.513 284.725,247.496 286.074,247.360 286.615 C 247.224 287.157,246.953 287.600,246.757 287.600 C 246.560 287.600,246.400 288.500,246.400 289.600 C 246.400 290.700,246.220 291.600,246.000 291.600 C 245.739 291.600,245.600 297.667,245.600 309.000 L 245.600 326.400 247.985 326.400 L 250.369 326.400 250.485 308.185 C 250.558 296.633,250.746 289.866,251.000 289.685 C 251.220 289.528,251.696 288.860,252.059 288.200 C 252.421 287.540,253.096 286.822,253.559 286.605 C 254.021 286.388,254.400 286.073,254.400 285.905 C 254.400 285.737,254.655 285.600,254.967 285.600 C 255.278 285.600,255.608 285.375,255.700 285.100 C 255.812 284.765,256.769 284.600,258.600 284.600 C 260.431 284.600,261.388 284.765,261.500 285.100 C 261.592 285.375,261.925 285.600,262.240 285.600 C 262.972 285.600,265.600 288.286,265.600 289.034 C 265.600 289.345,265.780 289.600,266.000 289.600 C 266.220 289.600,266.400 290.129,266.400 290.776 C 266.400 291.423,266.580 292.064,266.800 292.200 C 267.057 292.359,267.200 298.537,267.200 309.424 L 267.200 326.400 269.000 326.400 L 270.800 326.400 270.800 309.400 C 270.800 298.333,270.940 292.400,271.200 292.400 C 271.420 292.400,271.600 291.770,271.600 291.000 C 271.600 290.230,271.780 289.600,272.000 289.600 C 272.220 289.600,272.400 289.345,272.400 289.034 C 272.400 288.286,275.028 285.600,275.760 285.600 C 276.075 285.600,276.408 285.375,276.500 285.100 C 276.612 284.765,277.569 284.600,279.400 284.600 C 281.231 284.600,282.188 284.765,282.300 285.100 C 282.392 285.375,282.722 285.600,283.033 285.600 C 283.345 285.600,283.600 285.759,283.600 285.953 C 283.600 286.148,283.973 286.404,284.430 286.524 C 284.886 286.643,285.357 287.114,285.476 287.570 C 285.596 288.027,285.852 288.400,286.047 288.400 C 286.241 288.400,286.400 288.655,286.400 288.967 C 286.400 289.278,286.625 289.608,286.900 289.700 C 287.288 289.829,287.427 293.961,287.519 308.133 L 287.638 326.400 290.019 326.400 L 292.400 326.400 292.400 308.800 C 292.400 297.333,292.261 291.200,292.000 291.200 C 291.780 291.200,291.600 290.390,291.600 289.400 C 291.600 288.410,291.440 287.600,291.243 287.600 C 291.047 287.600,290.776 287.157,290.640 286.615 C 290.320 285.340,286.660 281.680,285.385 281.360 C 284.843 281.224,284.400 280.953,284.400 280.757 C 284.400 280.560,283.601 280.400,282.624 280.400 C 281.647 280.400,280.736 280.220,280.600 280.000 C 280.464 279.780,279.733 279.600,278.976 279.600 C 278.219 279.600,277.600 279.780,277.600 280.000 C 277.600 280.220,276.880 280.400,276.000 280.400 C 275.120 280.400,274.400 280.560,274.400 280.757 C 274.400 280.953,273.913 281.236,273.317 281.385 C 272.058 281.701,269.213 284.322,269.175 285.200 C 269.158 285.593,269.035 285.525,268.819 285.000 C 268.446 284.099,266.603 282.400,265.997 282.400 C 265.779 282.400,265.600 282.223,265.600 282.008 C 265.600 281.792,265.150 281.502,264.600 281.364 C 264.050 281.226,263.600 280.953,263.600 280.757 C 263.600 280.560,262.880 280.400,262.000 280.400 C 261.120 280.400,260.400 280.220,260.400 280.000 C 260.400 279.780,259.781 279.600,259.024 279.600 C 258.267 279.600,257.536 279.780,257.400 280.000 M313.400 280.000 C 313.264 280.220,312.353 280.400,311.376 280.400 C 310.399 280.400,309.600 280.557,309.600 280.749 C 309.600 280.941,308.880 281.213,308.000 281.354 C 307.120 281.494,306.400 281.759,306.400 281.942 C 306.400 282.124,305.769 282.614,304.998 283.029 C 304.226 283.445,303.497 284.094,303.377 284.472 C 303.257 284.850,302.850 285.257,302.472 285.377 C 302.094 285.497,301.445 286.226,301.029 286.998 C 300.614 287.769,300.138 288.400,299.972 288.400 C 299.806 288.400,299.549 289.120,299.400 290.000 C 299.251 290.880,298.966 291.600,298.765 291.600 C 298.551 291.600,298.400 298.785,298.400 309.000 L 298.400 326.400 300.600 326.400 L 302.800 326.400 302.800 318.000 L 302.800 309.600 315.000 309.600 L 327.200 309.600 327.200 318.000 L 327.200 326.400 329.400 326.400 L 331.600 326.400 331.600 310.400 C 331.600 300.000,331.460 294.400,331.200 294.400 C 330.980 294.400,330.800 293.771,330.800 293.003 C 330.800 291.551,329.640 288.400,329.106 288.400 C 328.938 288.400,328.800 288.143,328.800 287.829 C 328.800 287.514,328.571 287.019,328.291 286.729 C 328.012 286.438,327.376 285.674,326.880 285.031 C 325.987 283.875,324.860 283.051,323.500 282.560 C 323.115 282.421,322.800 282.162,322.800 281.985 C 322.800 281.808,322.260 281.545,321.600 281.400 C 320.940 281.255,320.400 280.971,320.400 280.768 C 320.400 280.566,319.511 280.400,318.424 280.400 C 317.337 280.400,316.336 280.220,316.200 280.000 C 316.064 279.780,315.434 279.600,314.800 279.600 C 314.166 279.600,313.536 279.780,313.400 280.000 M339.200 303.400 L 339.200 326.400 341.400 326.400 L 343.600 326.400 343.600 303.400 L 343.600 280.400 341.400 280.400 L 339.200 280.400 339.200 303.400 M352.400 303.400 L 352.400 326.400 367.000 326.400 L 381.600 326.400 381.600 324.400 L 381.600 322.400 369.000 322.400 L 356.400 322.400 356.400 301.400 L 356.400 280.400 354.400 280.400 L 352.400 280.400 352.400 303.400 M319.133 285.223 C 319.207 285.431,319.522 285.600,319.833 285.600 C 320.145 285.600,320.400 285.768,320.400 285.973 C 320.400 286.178,320.786 286.469,321.258 286.618 C 322.354 286.966,324.400 289.047,324.400 289.814 C 324.400 290.136,324.567 290.400,324.771 290.400 C 325.244 290.400,326.400 292.698,326.400 293.638 C 326.400 294.031,326.580 294.464,326.800 294.600 C 327.033 294.744,327.200 297.004,327.200 300.024 L 327.200 305.200 315.000 305.200 L 302.800 305.200 302.800 299.000 C 302.800 295.133,302.951 292.800,303.200 292.800 C 303.420 292.800,303.600 292.530,303.600 292.200 C 303.600 291.870,303.780 291.600,304.000 291.600 C 304.220 291.600,304.400 291.358,304.400 291.062 C 304.400 290.766,304.850 290.001,305.400 289.362 C 305.949 288.723,306.399 288.065,306.400 287.900 C 306.400 287.735,306.670 287.600,307.000 287.600 C 307.330 287.600,307.600 287.432,307.600 287.227 C 307.600 287.022,307.979 286.734,308.443 286.586 C 308.906 286.439,309.629 286.022,310.050 285.659 C 311.447 284.454,318.737 284.104,319.133 285.223 " stroke="none" fill="#1c9cdc" fill-rule="evenodd"></path><path id="path1" d="M245.829 57.829 C 245.483 58.174,245.200 58.612,245.200 58.802 C 245.200 58.991,244.810 59.270,244.333 59.421 C 243.856 59.573,242.587 60.575,241.514 61.648 C 240.440 62.722,239.410 63.600,239.224 63.600 C 239.039 63.600,237.982 64.500,236.876 65.600 C 235.771 66.700,234.593 67.600,234.260 67.600 C 233.927 67.600,233.543 67.951,233.406 68.380 C 233.270 68.808,232.817 69.267,232.400 69.400 C 231.983 69.533,231.530 69.992,231.394 70.420 C 231.257 70.849,230.861 71.200,230.513 71.200 C 230.165 71.200,229.017 72.100,227.963 73.200 C 226.908 74.300,225.862 75.200,225.638 75.200 C 225.414 75.200,224.518 75.920,223.647 76.800 C 222.776 77.680,221.951 78.400,221.814 78.400 C 221.541 78.400,220.629 79.114,219.881 79.914 C 218.426 81.469,217.338 82.400,216.977 82.400 C 216.836 82.400,215.839 83.300,214.762 84.400 C 213.685 85.500,212.652 86.400,212.466 86.400 C 212.280 86.400,211.393 87.120,210.495 88.000 C 209.597 88.880,208.591 89.600,208.258 89.600 C 207.926 89.600,207.543 89.951,207.406 90.380 C 207.270 90.808,206.817 91.267,206.400 91.400 C 205.983 91.533,205.533 91.983,205.400 92.400 C 205.267 92.817,204.778 93.280,204.312 93.428 C 203.846 93.576,202.587 94.575,201.514 95.648 C 200.440 96.722,199.417 97.600,199.239 97.600 C 199.061 97.600,198.103 98.391,197.108 99.357 C 196.114 100.324,194.927 101.233,194.471 101.378 C 194.014 101.522,193.533 101.983,193.400 102.400 C 193.267 102.817,192.817 103.267,192.400 103.400 C 191.983 103.533,191.530 103.992,191.394 104.420 C 191.257 104.849,190.860 105.200,190.511 105.200 C 190.162 105.200,189.191 105.920,188.354 106.800 C 187.517 107.680,186.674 108.400,186.481 108.400 C 186.288 108.400,185.207 109.300,184.077 110.400 C 182.948 111.500,181.916 112.400,181.783 112.400 C 181.500 112.400,180.070 113.639,178.919 114.881 C 178.182 115.677,177.261 116.400,176.986 116.400 C 176.849 116.400,176.024 117.120,175.153 118.000 C 174.282 118.880,173.437 119.600,173.275 119.600 C 173.113 119.600,172.051 120.500,170.916 121.600 C 169.781 122.700,168.583 123.600,168.253 123.600 C 167.924 123.600,167.543 123.951,167.406 124.380 C 167.270 124.808,166.817 125.267,166.400 125.400 C 165.983 125.533,165.533 125.983,165.400 126.400 C 165.267 126.817,164.768 127.283,164.290 127.435 C 163.812 127.587,162.658 128.496,161.725 129.455 C 160.793 130.415,159.877 131.200,159.691 131.200 C 159.505 131.200,158.438 132.082,157.320 133.159 C 156.202 134.237,154.917 135.236,154.464 135.380 C 154.011 135.523,153.530 135.992,153.394 136.420 C 153.257 136.849,152.978 137.200,152.773 137.200 C 152.568 137.200,152.400 137.740,152.400 138.400 C 152.400 139.505,152.511 139.600,153.800 139.600 C 154.570 139.600,155.200 139.757,155.200 139.949 C 155.200 140.142,161.320 140.432,168.800 140.594 C 176.280 140.757,182.400 141.049,182.400 141.245 C 182.400 141.440,185.550 141.600,189.400 141.600 C 193.250 141.600,196.400 141.760,196.400 141.955 C 196.400 142.151,202.520 142.443,210.000 142.606 C 217.480 142.768,223.600 143.058,223.600 143.251 C 223.600 143.443,225.670 143.600,228.200 143.600 C 232.022 143.600,232.800 143.499,232.800 143.000 C 232.800 142.670,232.980 142.400,233.200 142.400 C 233.420 142.400,233.600 141.590,233.600 140.600 C 233.600 139.610,233.757 138.800,233.948 138.800 C 234.140 138.800,234.424 137.180,234.578 135.200 C 234.733 133.220,235.027 131.600,235.230 131.600 C 235.434 131.600,235.600 130.891,235.600 130.024 C 235.600 129.157,235.767 128.344,235.970 128.218 C 236.174 128.092,236.467 126.372,236.622 124.395 C 236.777 122.418,237.060 120.800,237.252 120.800 C 237.443 120.800,237.600 120.080,237.600 119.200 C 237.600 118.320,237.764 117.600,237.964 117.600 C 238.164 117.600,238.456 116.070,238.611 114.200 C 238.767 112.330,239.053 110.800,239.247 110.800 C 239.441 110.800,239.600 110.091,239.600 109.224 C 239.600 108.357,239.758 107.549,239.952 107.430 C 240.146 107.310,240.432 105.679,240.588 103.806 C 240.744 101.933,241.036 100.400,241.236 100.400 C 241.436 100.400,241.600 99.590,241.600 98.600 C 241.600 97.610,241.766 96.800,241.970 96.800 C 242.173 96.800,242.467 95.180,242.622 93.200 C 242.776 91.220,243.060 89.600,243.252 89.600 C 243.443 89.600,243.600 88.880,243.600 88.000 C 243.600 87.120,243.759 86.400,243.953 86.400 C 244.147 86.400,244.433 84.870,244.589 83.000 C 244.744 81.130,245.036 79.600,245.236 79.600 C 245.436 79.600,245.600 78.700,245.600 77.600 C 245.600 76.500,245.764 75.600,245.964 75.600 C 246.164 75.600,246.456 74.070,246.611 72.200 C 246.767 70.330,247.053 68.800,247.247 68.800 C 247.441 68.800,247.600 68.116,247.600 67.280 C 247.600 66.444,247.768 65.589,247.972 65.380 C 248.177 65.171,248.472 63.245,248.627 61.100 L 248.910 57.200 247.683 57.200 C 247.009 57.200,246.174 57.483,245.829 57.829 M71.600 280.000 C 71.600 280.220,70.801 280.400,69.824 280.400 C 68.847 280.400,67.945 280.566,67.819 280.769 C 67.694 280.972,67.053 281.257,66.395 281.401 C 65.738 281.545,65.200 281.829,65.200 282.032 C 65.200 282.234,64.859 282.400,64.443 282.400 C 64.026 282.400,63.582 282.670,63.455 283.000 C 63.329 283.330,62.872 283.600,62.440 283.600 C 62.005 283.600,61.540 283.958,61.400 284.400 C 61.260 284.840,60.978 285.200,60.773 285.200 C 60.568 285.200,60.400 285.470,60.400 285.800 C 60.400 286.130,60.223 286.400,60.008 286.400 C 59.792 286.400,59.502 286.850,59.364 287.400 C 59.226 287.950,58.953 288.400,58.757 288.400 C 58.560 288.400,58.400 288.655,58.400 288.967 C 58.400 289.278,58.211 289.596,57.981 289.673 C 57.750 289.750,57.455 290.845,57.325 292.106 C 57.195 293.368,56.933 294.400,56.744 294.400 C 56.555 294.400,56.400 301.600,56.400 310.400 L 56.400 326.400 58.600 326.400 L 60.800 326.400 60.800 318.000 L 60.800 309.600 73.200 309.600 L 85.600 309.600 85.600 318.000 L 85.600 326.400 87.600 326.400 L 89.600 326.400 89.600 309.000 C 89.600 299.366,89.444 291.600,89.251 291.600 C 89.059 291.600,88.787 290.880,88.646 290.000 C 88.506 289.120,88.213 288.400,87.995 288.400 C 87.778 288.400,87.600 288.212,87.600 287.983 C 87.600 287.558,87.010 286.742,86.081 285.881 C 85.795 285.616,85.345 285.169,85.081 284.886 C 83.449 283.142,82.534 282.400,82.017 282.400 C 81.788 282.400,81.600 282.222,81.600 282.005 C 81.600 281.787,80.880 281.494,80.000 281.354 C 79.120 281.213,78.400 280.941,78.400 280.749 C 78.400 280.557,77.590 280.400,76.600 280.400 C 75.610 280.400,74.800 280.220,74.800 280.000 C 74.800 279.780,74.080 279.600,73.200 279.600 C 72.320 279.600,71.600 279.780,71.600 280.000 M143.200 280.000 C 143.200 280.220,142.390 280.400,141.400 280.400 C 140.410 280.400,139.600 280.557,139.600 280.749 C 139.600 280.941,138.880 281.213,138.000 281.354 C 137.120 281.494,136.400 281.787,136.400 282.005 C 136.400 282.222,136.212 282.400,135.983 282.400 C 135.560 282.400,134.754 282.980,133.881 283.914 C 133.269 284.568,132.568 285.269,131.914 285.881 C 130.980 286.754,130.400 287.560,130.400 287.983 C 130.400 288.212,130.222 288.400,130.005 288.400 C 129.787 288.400,129.494 289.120,129.354 290.000 C 129.213 290.880,128.941 291.600,128.749 291.600 C 128.556 291.600,128.400 299.366,128.400 309.000 L 128.400 326.400 130.600 326.400 L 132.800 326.400 132.800 318.000 L 132.800 309.600 145.000 309.600 L 157.200 309.600 157.200 318.000 L 157.200 326.400 159.400 326.400 L 161.600 326.400 161.600 310.400 C 161.600 301.600,161.445 294.400,161.256 294.400 C 161.067 294.400,160.805 293.368,160.675 292.106 C 160.545 290.845,160.250 289.750,160.019 289.673 C 159.789 289.596,159.600 289.278,159.600 288.967 C 159.600 288.655,159.440 288.400,159.243 288.400 C 159.047 288.400,158.774 287.950,158.636 287.400 C 158.498 286.850,158.208 286.400,157.992 286.400 C 157.777 286.400,157.600 286.130,157.600 285.800 C 157.600 285.470,157.432 285.200,157.227 285.200 C 157.022 285.200,156.740 284.840,156.600 284.400 C 156.460 283.958,155.995 283.600,155.560 283.600 C 155.128 283.600,154.671 283.330,154.545 283.000 C 154.418 282.670,153.974 282.400,153.557 282.400 C 153.141 282.400,152.800 282.234,152.800 282.032 C 152.800 281.829,152.262 281.545,151.605 281.401 C 150.947 281.257,150.306 280.972,150.181 280.769 C 150.055 280.566,149.153 280.400,148.176 280.400 C 147.199 280.400,146.400 280.220,146.400 280.000 C 146.400 279.780,145.680 279.600,144.800 279.600 C 143.920 279.600,143.200 279.780,143.200 280.000 M222.400 280.000 C 222.400 280.220,221.500 280.400,220.400 280.400 C 219.300 280.400,218.400 280.557,218.400 280.749 C 218.400 280.941,217.723 281.206,216.896 281.338 C 216.058 281.472,215.133 281.938,214.808 282.389 C 214.486 282.835,213.993 283.200,213.711 283.200 C 213.081 283.200,210.400 285.986,210.400 286.641 C 210.400 286.901,210.130 287.218,209.800 287.345 C 209.470 287.471,209.200 287.941,209.200 288.387 C 209.200 288.834,209.065 289.201,208.900 289.203 C 207.600 289.217,207.425 291.353,207.289 308.900 L 207.154 326.400 209.377 326.400 L 211.600 326.400 211.600 318.000 L 211.600 309.600 223.600 309.600 L 235.600 309.600 235.600 318.000 L 235.600 326.400 238.000 326.400 L 240.400 326.400 240.400 309.400 C 240.400 298.333,240.260 292.400,240.000 292.400 C 239.780 292.400,239.600 291.950,239.600 291.400 C 239.600 290.850,239.428 290.400,239.218 290.400 C 239.008 290.400,238.718 289.770,238.574 289.000 C 238.429 288.230,238.151 287.600,237.955 287.600 C 237.760 287.600,237.600 287.411,237.600 287.181 C 237.600 286.558,234.175 283.200,233.540 283.200 C 233.239 283.200,232.769 282.842,232.496 282.405 C 232.198 281.927,231.360 281.507,230.400 281.354 C 229.520 281.213,228.800 280.941,228.800 280.749 C 228.800 280.557,228.080 280.400,227.200 280.400 C 226.320 280.400,225.600 280.220,225.600 280.000 C 225.600 279.780,224.880 279.600,224.000 279.600 C 223.120 279.600,222.400 279.780,222.400 280.000 M21.600 303.400 L 21.600 326.400 24.000 326.400 L 26.400 326.400 26.400 316.000 L 26.400 305.600 36.000 305.600 L 45.600 305.600 45.600 316.000 L 45.600 326.400 47.600 326.400 L 49.600 326.400 49.600 303.400 L 49.600 280.400 47.600 280.400 L 45.600 280.400 45.600 290.800 L 45.600 301.200 36.000 301.200 L 26.400 301.200 26.400 290.800 L 26.400 280.400 24.000 280.400 L 21.600 280.400 21.600 303.400 M95.600 303.400 L 95.600 326.400 98.000 326.400 L 100.400 326.400 100.400 316.000 L 100.400 305.600 105.000 305.600 C 108.822 305.600,109.600 305.701,109.600 306.200 C 109.600 306.530,109.780 306.800,110.000 306.800 C 110.220 306.800,110.400 307.160,110.400 307.600 C 110.400 308.040,110.560 308.400,110.757 308.400 C 110.953 308.400,111.233 308.895,111.379 309.500 C 111.755 311.055,112.545 312.800,112.873 312.800 C 113.026 312.800,113.272 313.610,113.421 314.600 C 113.569 315.590,113.850 316.400,114.045 316.400 C 114.240 316.400,114.400 316.670,114.400 317.000 C 114.400 317.330,114.578 317.600,114.795 317.600 C 115.013 317.600,115.306 318.320,115.446 319.200 C 115.587 320.080,115.859 320.800,116.051 320.800 C 116.243 320.800,116.400 321.160,116.400 321.600 C 116.400 322.040,116.566 322.400,116.768 322.400 C 116.971 322.400,117.264 322.979,117.419 323.687 C 117.934 326.031,118.386 326.400,120.748 326.400 L 122.904 326.400 122.691 324.513 C 122.574 323.475,122.281 322.560,122.039 322.480 C 121.798 322.399,121.600 321.898,121.600 321.367 C 121.600 320.835,121.428 320.400,121.218 320.400 C 121.008 320.400,120.718 319.770,120.574 319.000 C 120.429 318.230,120.151 317.600,119.955 317.600 C 119.760 317.600,119.600 317.251,119.600 316.824 C 119.600 316.397,119.434 315.945,119.231 315.819 C 119.028 315.694,118.743 315.053,118.599 314.395 C 118.455 313.738,118.171 313.200,117.968 313.200 C 117.766 313.200,117.600 312.750,117.600 312.200 C 117.600 311.650,117.440 311.200,117.245 311.200 C 117.049 311.200,116.771 310.570,116.626 309.800 C 116.482 309.030,116.192 308.400,115.982 308.400 C 115.772 308.400,115.600 307.950,115.600 307.400 C 115.600 306.850,115.420 306.400,115.200 306.400 C 113.776 306.400,114.968 304.866,116.580 304.624 C 117.848 304.434,118.431 304.133,118.607 303.579 C 118.743 303.150,119.162 302.800,119.538 302.800 C 120.157 302.800,121.600 301.517,121.600 300.967 C 121.600 300.844,121.870 300.473,122.200 300.143 C 122.530 299.813,122.800 299.106,122.800 298.571 C 122.800 298.037,122.980 297.600,123.200 297.600 C 123.443 297.600,123.600 295.800,123.600 293.000 C 123.600 290.465,123.435 288.400,123.232 288.400 C 123.029 288.400,122.750 287.885,122.612 287.255 C 122.474 286.625,121.964 285.738,121.480 285.283 C 120.996 284.828,120.384 284.218,120.119 283.928 C 119.277 283.004,118.447 282.400,118.017 282.400 C 117.788 282.400,117.600 282.222,117.600 282.005 C 117.600 281.787,116.880 281.494,116.000 281.354 C 115.120 281.213,114.400 280.941,114.400 280.749 C 114.400 280.557,110.170 280.400,105.000 280.400 L 95.600 280.400 95.600 303.400 M169.200 303.400 L 169.200 326.400 171.000 326.400 L 172.800 326.400 172.827 314.500 C 172.847 305.709,172.967 302.833,173.284 303.491 C 173.521 303.981,174.039 304.486,174.437 304.612 C 174.834 304.738,175.267 305.183,175.400 305.600 C 175.533 306.017,175.983 306.467,176.400 306.600 C 176.817 306.733,177.267 307.183,177.400 307.600 C 177.533 308.017,177.983 308.467,178.400 308.600 C 178.817 308.733,179.267 309.183,179.400 309.600 C 179.533 310.017,179.983 310.467,180.400 310.600 C 180.817 310.733,181.267 311.183,181.400 311.600 C 181.533 312.017,181.983 312.467,182.400 312.600 C 182.817 312.733,183.267 313.183,183.400 313.600 C 183.533 314.017,183.983 314.467,184.400 314.600 C 184.817 314.733,185.267 315.183,185.400 315.600 C 185.533 316.017,185.983 316.467,186.400 316.600 C 186.817 316.733,187.267 317.183,187.400 317.600 C 187.533 318.017,187.983 318.467,188.400 318.600 C 188.817 318.733,189.267 319.183,189.400 319.600 C 189.533 320.017,189.983 320.467,190.400 320.600 C 190.817 320.733,191.267 321.183,191.400 321.600 C 191.533 322.017,191.983 322.467,192.400 322.600 C 192.817 322.733,193.267 323.183,193.400 323.600 C 193.533 324.017,193.983 324.467,194.400 324.600 C 194.817 324.733,195.270 325.192,195.406 325.620 C 195.681 326.486,201.691 326.824,202.199 326.002 C 202.334 325.784,197.034 320.195,190.422 313.582 C 183.810 306.970,178.400 301.470,178.400 301.358 C 178.400 301.247,182.902 296.653,188.405 291.148 C 193.907 285.643,198.307 280.973,198.181 280.769 C 198.056 280.566,196.782 280.400,195.352 280.400 L 192.751 280.400 182.776 290.385 L 172.800 300.370 172.800 290.385 L 172.800 280.400 171.000 280.400 L 169.200 280.400 169.200 303.400 M77.171 285.095 C 77.297 285.267,78.075 285.762,78.900 286.195 C 79.725 286.628,80.400 287.121,80.400 287.291 C 80.400 287.461,80.593 287.600,80.829 287.600 C 81.382 287.600,82.400 288.618,82.400 289.171 C 82.400 289.407,82.539 289.600,82.709 289.600 C 82.879 289.600,83.372 290.275,83.805 291.100 C 84.238 291.925,84.742 292.708,84.924 292.841 C 85.106 292.973,85.361 295.808,85.489 299.141 L 85.721 305.200 73.261 305.200 L 60.800 305.200 60.800 300.000 C 60.800 296.800,60.954 294.800,61.200 294.800 C 61.420 294.800,61.600 294.350,61.600 293.800 C 61.600 293.250,61.780 292.800,62.000 292.800 C 62.220 292.800,62.400 292.344,62.400 291.787 C 62.400 291.231,62.670 290.671,63.000 290.545 C 63.330 290.418,63.600 290.070,63.600 289.771 C 63.600 289.039,65.675 286.957,66.742 286.618 C 67.214 286.469,67.600 286.178,67.600 285.973 C 67.600 285.768,67.870 285.600,68.200 285.600 C 68.530 285.600,68.800 285.431,68.800 285.224 C 68.800 284.457,76.615 284.336,77.171 285.095 M149.133 285.223 C 149.207 285.431,149.522 285.600,149.833 285.600 C 150.145 285.600,150.400 285.768,150.400 285.973 C 150.400 286.178,150.786 286.469,151.258 286.618 C 152.170 286.908,154.400 288.999,154.400 289.565 C 154.400 289.750,154.670 290.126,155.000 290.400 C 155.330 290.674,155.600 291.236,155.600 291.649 C 155.600 292.062,155.780 292.400,156.000 292.400 C 156.220 292.400,156.400 292.940,156.400 293.600 C 156.400 294.260,156.580 294.800,156.800 294.800 C 157.046 294.800,157.200 296.800,157.200 300.000 L 157.200 305.200 145.000 305.200 L 132.800 305.200 132.800 299.000 C 132.800 295.133,132.951 292.800,133.200 292.800 C 133.420 292.800,133.600 292.530,133.600 292.200 C 133.600 291.870,133.760 291.600,133.957 291.600 C 134.153 291.600,134.426 291.150,134.564 290.600 C 134.702 290.050,134.992 289.600,135.208 289.600 C 135.423 289.600,135.600 289.407,135.600 289.171 C 135.600 288.936,135.857 288.486,136.171 288.171 C 136.486 287.857,136.936 287.600,137.171 287.600 C 137.407 287.600,137.600 287.461,137.600 287.291 C 137.600 287.121,138.275 286.628,139.100 286.195 C 139.925 285.762,140.690 285.289,140.800 285.144 C 141.386 284.372,148.857 284.443,149.133 285.223 M227.533 285.204 C 227.607 285.422,228.012 285.600,228.433 285.600 C 228.855 285.600,229.200 285.760,229.200 285.957 C 229.200 286.153,229.638 286.423,230.173 286.558 C 230.709 286.692,231.258 287.152,231.394 287.580 C 231.530 288.009,231.983 288.467,232.400 288.600 C 232.817 288.733,233.270 289.192,233.406 289.620 C 233.543 290.049,233.822 290.400,234.027 290.400 C 234.232 290.400,234.400 290.655,234.400 290.967 C 234.400 291.278,234.625 291.608,234.900 291.700 C 235.266 291.822,235.438 293.659,235.541 298.533 L 235.682 305.200 223.641 305.200 L 211.600 305.200 211.600 299.800 C 211.600 296.830,211.760 294.400,211.955 294.400 C 212.150 294.400,212.431 293.590,212.579 292.600 C 212.728 291.610,213.018 290.800,213.225 290.800 C 213.431 290.800,213.600 290.611,213.600 290.381 C 213.600 289.706,217.051 286.400,217.756 286.400 C 218.110 286.400,218.400 286.220,218.400 286.000 C 218.400 285.780,218.670 285.600,219.000 285.600 C 219.330 285.600,219.600 285.431,219.600 285.224 C 219.600 284.395,227.254 284.375,227.533 285.204 M113.200 285.200 C 113.200 285.420,113.555 285.600,113.989 285.600 C 117.044 285.600,121.515 295.428,118.862 296.313 C 118.608 296.397,118.400 296.722,118.400 297.033 C 118.400 297.345,118.232 297.600,118.027 297.600 C 117.822 297.600,117.543 297.951,117.406 298.380 C 117.270 298.808,116.763 299.283,116.280 299.433 C 115.796 299.584,115.310 299.819,115.200 299.954 C 114.377 300.966,112.803 301.200,106.805 301.200 L 100.400 301.200 100.400 293.000 L 100.400 284.800 106.800 284.800 C 110.800 284.800,113.200 284.950,113.200 285.200 " stroke="none" fill="#2c2c7c" fill-rule="evenodd"></path><path id="path2" d="" stroke="none" fill="#2480e0" fill-rule="evenodd"></path><path id="path3" d="" stroke="none" fill="#2480e0" fill-rule="evenodd"></path><path id="path4" d="" stroke="none" fill="#2480e0" fill-rule="evenodd"></path></g></svg>